<svg id="Layer_1" data-name="Layer 1" xmlns="http://www.w3.org/2000/svg" viewBox="0 0 806.81 277.33"><defs><style>.cls-1{fill:#e6e7e8;stroke:#b3b5b8;}.cls-1,.cls-5{stroke-miterlimit:10;}.cls-2,.cls-3{isolation:isolate;}.cls-2{font-size:12px;font-family:Arial-BoldMT, Arial;font-weight:700;}.cls-2,.cls-3,.cls-6{fill:#231f20;}.cls-3{font-size:15px;font-family:ArialMT, Arial;}.cls-4,.cls-5{fill:none;}.cls-5{stroke:#231f20;}</style></defs><title>alle tre strukturer_uten binde BM</title><rect class="cls-1" x="1.48" y="0.72" width="91.54" height="29.51"/><text class="cls-2" transform="translate(8.99 19.16)">Ruterstruktur</text><rect class="cls-1" x="29.17" y="57.82" width="35.78" height="26.38"/><text class="cls-3" transform="translate(42.75 75.71)">1</text><rect class="cls-1" x="0.5" y="106.94" width="35.78" height="26.38"/><text class="cls-3" transform="translate(8.09 124.89)">1a</text><rect class="cls-1" x="57.63" y="106.94" width="35.78" height="26.38"/><text class="cls-3" transform="translate(66.21 125.22)">1b</text><rect class="cls-1" x="29.17" y="151.05" width="35.78" height="26.38"/><text class="cls-3" transform="translate(41.76 168.01)">2</text><line class="cls-4" x1="49.56" y1="89.6" x2="61.7" y2="101.96"/><line class="cls-5" x1="49.56" y1="89.6" x2="57.47" y2="97.65"/><path class="cls-6" d="M61.69,102a30.44,30.44,0,0,0-9.38-2.76l4.6-2.11,2.18-4.56A29.82,29.82,0,0,0,61.69,102Z"/><line class="cls-4" x1="25.72" y1="135.57" x2="37.85" y2="147.92"/><line class="cls-5" x1="25.72" y1="135.57" x2="33.62" y2="143.62"/><path class="cls-6" d="M37.85,147.92a30.46,30.46,0,0,0-9.38-2.77l4.59-2.1,2.19-4.56A30.35,30.35,0,0,0,37.85,147.92Z"/><line class="cls-4" x1="64.9" y1="135.04" x2="52.54" y2="147.18"/><line class="cls-5" x1="64.9" y1="135.04" x2="56.85" y2="142.95"/><path class="cls-6" d="M52.58,147.17a30.19,30.19,0,0,0,2.77-9.38l2.1,4.6L62,144.58A30.07,30.07,0,0,0,52.58,147.17Z"/><line class="cls-4" x1="38.13" y1="89.71" x2="25.77" y2="101.85"/><line class="cls-5" x1="38.13" y1="89.71" x2="30.08" y2="97.62"/><path class="cls-6" d="M25.76,101.84a29.85,29.85,0,0,0,2.77-9.38l2.11,4.6,4.55,2.19A30.07,30.07,0,0,0,25.76,101.84Z"/><rect class="cls-1" x="1.13" y="199.68" width="35.78" height="26.38"/><text class="cls-3" transform="translate(8.72 217.64)">2a</text><rect class="cls-1" x="58.26" y="199.68" width="35.78" height="26.38"/><text class="cls-3" transform="translate(66.85 217.97)">2b</text><rect class="cls-1" x="29.8" y="243.8" width="35.78" height="26.38"/><text class="cls-3" transform="translate(42.39 260.75)">3</text><line class="cls-4" x1="50.19" y1="182.35" x2="62.33" y2="194.7"/><line class="cls-5" x1="50.19" y1="182.35" x2="58.1" y2="190.4"/><path class="cls-6" d="M62.32,194.7a30.19,30.19,0,0,0-9.38-2.77l4.6-2.1,2.18-4.56A30.35,30.35,0,0,0,62.32,194.7Z"/><line class="cls-4" x1="26.35" y1="228.31" x2="38.48" y2="240.67"/><line class="cls-5" x1="26.35" y1="228.31" x2="34.26" y2="236.36"/><path class="cls-6" d="M38.48,240.66a30.44,30.44,0,0,0-9.38-2.76l4.6-2.11,2.18-4.56A29.82,29.82,0,0,0,38.48,240.66Z"/><line class="cls-4" x1="65.53" y1="227.79" x2="53.18" y2="239.92"/><line class="cls-5" x1="65.53" y1="227.79" x2="57.48" y2="235.69"/><path class="cls-6" d="M53.17,239.92a30.19,30.19,0,0,0,2.77-9.38l2.1,4.6,4.56,2.18A30.35,30.35,0,0,0,53.17,239.92Z"/><line class="cls-4" x1="38.76" y1="182.46" x2="26.4" y2="194.59"/><line class="cls-5" x1="38.76" y1="182.46" x2="30.71" y2="190.36"/><path class="cls-6" d="M26.4,194.59a30.44,30.44,0,0,0,2.76-9.38l2.11,4.59L35.83,192A29.82,29.82,0,0,0,26.4,194.59Z"/><rect class="cls-1" x="300.31" y="0.77" width="120.93" height="29.51"/><text class="cls-2" transform="translate(311.81 19.22)">Pyramidestruktur</text><rect class="cls-1" x="343.99" y="63.88" width="35.78" height="26.38"/><text class="cls-3" transform="translate(357.58 81.76)">1</text><rect class="cls-1" x="248.96" y="108.97" width="35.78" height="26.38"/><text class="cls-3" transform="translate(256.55 126.92)">1a</text><rect class="cls-1" x="437.46" y="108.97" width="35.78" height="26.38"/><text class="cls-3" transform="translate(446.05 127.25)">1b</text><rect class="cls-1" x="388.74" y="153.82" width="35.78" height="26.38"/><text class="cls-3" transform="translate(396.33 171.77)">1a</text><rect class="cls-1" x="388.74" y="153.82" width="35.78" height="26.38"/><text class="cls-3" transform="translate(396.33 171.77)">1a</text><rect class="cls-1" x="388.74" y="153.82" width="35.78" height="26.38"/><text class="cls-3" transform="translate(396.33 171.77)">1a</text><rect class="cls-1" x="388.74" y="153.82" width="35.78" height="26.38"/><text class="cls-3" transform="translate(396.33 171.77)">1a</text><rect class="cls-1" x="388.74" y="153.82" width="35.78" height="26.38"/><text class="cls-3" transform="translate(396.33 171.77)">1a</text><rect class="cls-1" x="388.74" y="153.82" width="35.78" height="26.38"/><text class="cls-3" transform="translate(396.33 171.77)">1a</text><rect class="cls-1" x="388.74" y="153.82" width="35.78" height="26.38"/><text class="cls-3" transform="translate(396.33 171.77)">1a</text><rect class="cls-1" x="388.74" y="153.82" width="35.78" height="26.38"/><text class="cls-3" transform="translate(396.33 171.77)">2c</text><rect class="cls-1" x="298.42" y="153.51" width="35.78" height="26.38"/><text class="cls-3" transform="translate(306.01 171.47)">2b</text><rect class="cls-1" x="483.17" y="153.14" width="35.78" height="26.38"/><text class="cls-3" transform="translate(490.75 171.1)">1a</text><rect class="cls-1" x="483.17" y="153.14" width="35.78" height="26.38"/><text class="cls-3" transform="translate(490.75 171.1)">1a</text><rect class="cls-1" x="483.17" y="153.14" width="35.78" height="26.38"/><text class="cls-3" transform="translate(490.75 171.1)">1a</text><rect class="cls-1" x="483.17" y="153.14" width="35.78" height="26.38"/><text class="cls-3" transform="translate(490.75 171.1)">1a</text><rect class="cls-1" x="483.17" y="153.14" width="35.78" height="26.38"/><text class="cls-3" transform="translate(490.75 171.1)">1a</text><rect class="cls-1" x="483.17" y="153.14" width="35.78" height="26.38"/><text class="cls-3" transform="translate(490.75 171.1)">1a</text><rect class="cls-1" x="483.17" y="153.14" width="35.78" height="26.38"/><text class="cls-3" transform="translate(490.75 171.1)">1a</text><rect class="cls-1" x="483.17" y="153.14" width="35.78" height="26.38"/><text class="cls-3" transform="translate(490.75 171.1)">2d</text><rect class="cls-1" x="202.74" y="153.45" width="35.78" height="26.38"/><text class="cls-3" transform="translate(210.33 171.4)">2a</text><rect class="cls-1" x="275.34" y="198.17" width="35.78" height="26.38"/><text class="cls-3" transform="translate(282.92 216.13)">2a</text><rect class="cls-1" x="275.34" y="198.17" width="35.78" height="26.38"/><text class="cls-3" transform="translate(282.92 216.13)">2a</text><rect class="cls-1" x="275.34" y="198.17" width="35.78" height="26.38"/><text class="cls-3" transform="translate(282.92 216.13)">2a</text><rect class="cls-1" x="275.34" y="198.17" width="35.78" height="26.38"/><text class="cls-3" transform="translate(282.92 216.13)">2a</text><rect class="cls-1" x="275.34" y="198.17" width="35.78" height="26.38"/><text class="cls-3" transform="translate(282.92 216.13)">2a</text><rect class="cls-1" x="275.34" y="198.17" width="35.78" height="26.38"/><text class="cls-3" transform="translate(282.92 216.13)">2a</text><rect class="cls-1" x="275.34" y="198.17" width="35.78" height="26.38"/><text class="cls-3" transform="translate(282.92 216.13)">3c</text><rect class="cls-1" x="229.34" y="198.17" width="35.78" height="26.38"/><text class="cls-3" transform="translate(236.92 216.13)">3b</text><rect class="cls-1" x="320.31" y="198.17" width="35.78" height="26.38"/><text class="cls-3" transform="translate(327.9 216.13)">3d</text><rect class="cls-1" x="365.31" y="198.17" width="35.78" height="26.38"/><text class="cls-3" transform="translate(372.9 216.13)">1a</text><rect class="cls-1" x="365.31" y="198.17" width="35.78" height="26.38"/><text class="cls-3" transform="translate(372.9 216.13)">1a</text><rect class="cls-1" x="365.31" y="198.17" width="35.78" height="26.38"/><text class="cls-3" transform="translate(372.9 216.13)">1a</text><rect class="cls-1" x="365.31" y="198.17" width="35.78" height="26.38"/><text class="cls-3" transform="translate(372.9 216.13)">1a</text><rect class="cls-1" x="365.31" y="198.17" width="35.78" height="26.38"/><text class="cls-3" transform="translate(372.9 216.13)">1a</text><rect class="cls-1" x="365.31" y="198.17" width="35.78" height="26.38"/><text class="cls-3" transform="translate(372.9 216.13)">1a</text><rect class="cls-1" x="365.31" y="198.17" width="35.78" height="26.38"/><text class="cls-3" transform="translate(372.9 216.13)">1a</text><rect class="cls-1" x="365.31" y="198.17" width="35.78" height="26.38"/><text class="cls-3" transform="translate(372.9 216.13)">3e</text><rect class="cls-1" x="411.31" y="198.17" width="35.78" height="26.38"/><text class="cls-3" transform="translate(418.9 216.13)">1a</text><rect class="cls-1" x="411.31" y="198.17" width="35.78" height="26.38"/><text class="cls-3" transform="translate(418.9 216.13)">1a</text><rect class="cls-1" x="411.31" y="198.17" width="35.78" height="26.38"/><text class="cls-3" transform="translate(418.9 216.13)">1a</text><rect class="cls-1" x="411.31" y="198.17" width="35.78" height="26.38"/><text class="cls-3" transform="translate(418.9 216.13)">1a</text><rect class="cls-1" x="411.31" y="198.17" width="35.78" height="26.38"/><text class="cls-3" transform="translate(418.9 216.13)">1a</text><rect class="cls-1" x="411.31" y="198.17" width="35.78" height="26.38"/><text class="cls-3" transform="translate(418.9 216.13)">1a</text><rect class="cls-1" x="411.31" y="198.17" width="35.78" height="26.38"/><text class="cls-3" transform="translate(418.9 216.13)">1a</text><rect class="cls-1" x="411.31" y="198.17" width="35.78" height="26.38"/><text class="cls-3" transform="translate(418.9 216.13)">3f</text><rect class="cls-1" x="456.84" y="198.17" width="35.78" height="26.38"/><text class="cls-3" transform="translate(464.43 216.13)">1a</text><rect class="cls-1" x="456.84" y="198.17" width="35.78" height="26.38"/><text class="cls-3" transform="translate(464.43 216.13)">1a</text><rect class="cls-1" x="456.84" y="198.17" width="35.78" height="26.38"/><text class="cls-3" transform="translate(464.43 216.13)">1a</text><rect class="cls-1" x="456.84" y="198.17" width="35.78" height="26.38"/><text class="cls-3" transform="translate(464.43 216.13)">1a</text><rect class="cls-1" x="456.84" y="198.17" width="35.78" height="26.38"/><text class="cls-3" transform="translate(464.43 216.13)">1a</text><rect class="cls-1" x="456.84" y="198.17" width="35.78" height="26.38"/><text class="cls-3" transform="translate(464.43 216.13)">1a</text><rect class="cls-1" x="456.84" y="198.17" width="35.78" height="26.38"/><text class="cls-3" transform="translate(464.43 216.13)">1a</text><rect class="cls-1" x="456.84" y="198.17" width="35.78" height="26.38"/><text class="cls-3" transform="translate(464.43 216.13)">3g</text><rect class="cls-1" x="501.84" y="198.17" width="35.78" height="26.38"/><text class="cls-3" transform="translate(509.43 216.13)">1a</text><rect class="cls-1" x="501.84" y="198.17" width="35.78" height="26.38"/><text class="cls-3" transform="translate(509.43 216.13)">1a</text><rect class="cls-1" x="501.84" y="198.17" width="35.78" height="26.38"/><text class="cls-3" transform="translate(509.43 216.13)">1a</text><rect class="cls-1" x="501.84" y="198.17" width="35.78" height="26.38"/><text class="cls-3" transform="translate(509.43 216.13)">1a</text><rect class="cls-1" x="501.84" y="198.17" width="35.78" height="26.38"/><text class="cls-3" transform="translate(509.43 216.13)">1a</text><rect class="cls-1" x="501.84" y="198.17" width="35.78" height="26.38"/><text class="cls-3" transform="translate(509.43 216.13)">1a</text><rect class="cls-1" x="501.84" y="198.17" width="35.78" height="26.38"/><text class="cls-3" transform="translate(509.43 216.13)">1a</text><rect class="cls-1" x="501.84" y="198.17" width="35.78" height="26.38"/><text class="cls-3" transform="translate(509.43 216.13)">3h</text><rect class="cls-1" x="183.8" y="198.06" width="35.78" height="26.38"/><text class="cls-3" transform="translate(191.39 216.01)">3a</text><line class="cls-4" x1="290.93" y1="107.36" x2="335.26" y2="85.42"/><line class="cls-5" x1="296.34" y1="104.68" x2="335.26" y2="85.42"/><path class="cls-6" d="M290.93,107.41a30,30,0,0,1,9.77.47l-3.65-3.5-.57-5A30.25,30.25,0,0,1,290.93,107.41Z"/><line class="cls-4" x1="387.65" y1="85.6" x2="432.19" y2="107.11"/><line class="cls-5" x1="387.65" y1="85.6" x2="426.76" y2="104.48"/><path class="cls-6" d="M432.19,107.1a30.25,30.25,0,0,0-9.77.57l3.62-3.54.52-5A29.91,29.91,0,0,0,432.19,107.1Z"/><line class="cls-4" x1="476.75" y1="137.46" x2="488.89" y2="149.82"/><line class="cls-5" x1="476.75" y1="137.46" x2="484.66" y2="145.51"/><path class="cls-6" d="M488.88,149.81a29.83,29.83,0,0,0-9.38-2.76l4.6-2.11,2.19-4.56A30.07,30.07,0,0,0,488.88,149.81Z"/><line class="cls-4" x1="514.19" y1="183.98" x2="526.33" y2="196.34"/><line class="cls-5" x1="514.19" y1="183.98" x2="522.1" y2="192.03"/><path class="cls-6" d="M526.32,196.33a30.44,30.44,0,0,0-9.38-2.76l4.6-2.11,2.18-4.56A30.35,30.35,0,0,0,526.32,196.33Z"/><line class="cls-4" x1="417.69" y1="183.28" x2="429.82" y2="195.64"/><line class="cls-5" x1="417.69" y1="183.28" x2="425.59" y2="191.33"/><path class="cls-6" d="M429.82,195.64a30,30,0,0,0-9.39-2.77l4.6-2.1,2.19-4.56A30.35,30.35,0,0,0,429.82,195.64Z"/><line class="cls-4" x1="327.69" y1="183.28" x2="339.82" y2="195.64"/><line class="cls-5" x1="327.69" y1="183.28" x2="335.59" y2="191.33"/><path class="cls-6" d="M339.82,195.64a30,30,0,0,0-9.39-2.77l4.6-2.1,2.19-4.56A30.35,30.35,0,0,0,339.82,195.64Z"/><line class="cls-4" x1="229.11" y1="183.28" x2="241.24" y2="195.64"/><line class="cls-5" x1="229.11" y1="183.28" x2="237.01" y2="191.33"/><path class="cls-6" d="M241.24,195.64a30.11,30.11,0,0,0-9.38-2.77l4.59-2.1,2.19-4.56A30.35,30.35,0,0,0,241.24,195.64Z"/><line class="cls-4" x1="285.62" y1="138.28" x2="297.75" y2="150.64"/><line class="cls-5" x1="285.62" y1="138.28" x2="293.52" y2="146.33"/><path class="cls-6" d="M297.75,150.64a30,30,0,0,0-9.39-2.77l4.6-2.1,2.19-4.56A30.35,30.35,0,0,0,297.75,150.64Z"/><line class="cls-4" x1="251.52" y1="138.39" x2="239.16" y2="150.53"/><line class="cls-5" x1="251.52" y1="138.39" x2="243.47" y2="146.3"/><path class="cls-6" d="M239.16,150.53a30,30,0,0,0,2.76-9.39l2.11,4.6,4.56,2.19A30.35,30.35,0,0,0,239.16,150.53Z"/><line class="cls-4" x1="213.92" y1="183.39" x2="201.56" y2="195.53"/><line class="cls-5" x1="213.92" y1="183.39" x2="205.87" y2="191.3"/><path class="cls-6" d="M201.58,195.53a30,30,0,0,0,2.76-9.39l2.11,4.6,4.56,2.19A30.35,30.35,0,0,0,201.58,195.53Z"/><line class="cls-4" x1="304.14" y1="183.08" x2="291.79" y2="195.22"/><line class="cls-5" x1="304.14" y1="183.08" x2="296.09" y2="190.99"/><path class="cls-6" d="M291.78,195.22a30.25,30.25,0,0,0,2.77-9.39l2.1,4.6,4.56,2.19A30.35,30.35,0,0,0,291.78,195.22Z"/><line class="cls-4" x1="394.87" y1="182.76" x2="382.51" y2="194.9"/><line class="cls-5" x1="394.87" y1="182.76" x2="386.82" y2="190.67"/><path class="cls-6" d="M382.51,194.89a29.83,29.83,0,0,0,2.76-9.38l2.11,4.6,4.56,2.18A30.35,30.35,0,0,0,382.51,194.89Z"/><line class="cls-4" x1="486.9" y1="182.76" x2="474.54" y2="194.9"/><line class="cls-5" x1="486.9" y1="182.76" x2="478.85" y2="190.67"/><path class="cls-6" d="M474.58,194.89a29.85,29.85,0,0,0,2.77-9.38l2.11,4.6,4.55,2.18A30.35,30.35,0,0,0,474.58,194.89Z"/><line class="cls-4" x1="436.71" y1="137.84" x2="424.35" y2="149.97"/><line class="cls-5" x1="436.71" y1="137.84" x2="428.66" y2="145.74"/><path class="cls-6" d="M424.35,150a30.19,30.19,0,0,0,2.77-9.38l2.1,4.59,4.56,2.23A30,30,0,0,0,424.35,150Z"/><rect class="cls-1" x="686.48" y="0.5" width="91.54" height="29.51"/><text class="cls-2" transform="translate(691.98 18.94)">Friere struktur</text><rect class="cls-1" x="714.16" y="57.6" width="35.78" height="26.38"/><text class="cls-3" transform="translate(727.75 75.49)">1</text><rect class="cls-1" x="662.49" y="106.72" width="35.78" height="26.38"/><text class="cls-3" transform="translate(670.08 124.67)">1a</text><rect class="cls-1" x="714.62" y="106.72" width="35.78" height="26.38"/><text class="cls-3" transform="translate(723.21 125.01)">1b</text><rect class="cls-1" x="686.16" y="153.83" width="35.78" height="26.38"/><text class="cls-3" transform="translate(695.75 172.26)">2b</text><line class="cls-4" x1="732.98" y1="88.49" x2="732.69" y2="103.22"/><line class="cls-5" x1="732.98" y1="88.49" x2="732.81" y2="97.19"/><path class="cls-6" d="M732.69,103.22a30.17,30.17,0,0,0-4.59-8.64l4.72,1.81,4.79-1.62A30.08,30.08,0,0,0,732.69,103.22Z"/><line class="cls-4" x1="710.23" y1="89.49" x2="697.87" y2="101.63"/><line class="cls-5" x1="710.23" y1="89.49" x2="702.18" y2="97.4"/><path class="cls-6" d="M697.87,101.62a30.44,30.44,0,0,0,2.76-9.38l2.11,4.6L707.3,99A30.07,30.07,0,0,0,697.87,101.62Z"/><rect class="cls-1" x="672.12" y="201.47" width="35.78" height="26.38"/><text class="cls-3" transform="translate(679.71 219.42)">3a</text><rect class="cls-1" x="750.25" y="154.47" width="35.78" height="26.38"/><text class="cls-3" transform="translate(758.84 172.75)">2c</text><line class="cls-4" x1="768.31" y1="130.48" x2="725.66" y2="164.68"/><line class="cls-5" x1="768.31" y1="130.48" x2="730.37" y2="160.9"/><path class="cls-6" d="M725.66,164.67a30.26,30.26,0,0,0,3.69-9l1.63,4.74,4.32,2.64A30.1,30.1,0,0,0,725.66,164.67Z"/><line class="cls-4" x1="755.05" y1="89.27" x2="767.18" y2="101.62"/><line class="cls-5" x1="755.05" y1="89.27" x2="762.95" y2="97.32"/><path class="cls-6" d="M767.18,101.62a30.25,30.25,0,0,0-9.39-2.77l4.6-2.1,2.19-4.56A30.35,30.35,0,0,0,767.18,101.62Z"/><rect class="cls-1" x="770.53" y="106.4" width="35.78" height="26.38"/><text class="cls-3" transform="translate(780.12 124.36)">1c</text><rect class="cls-1" x="769.58" y="201.49" width="35.78" height="26.38"/><line class="cls-4" x1="798.4" y1="198.43" x2="798.2" y2="137.56"/><line class="cls-5" x1="798.4" y1="198.43" x2="798.22" y2="143.59"/><path class="cls-6" d="M798.2,137.55a30.11,30.11,0,0,0,4.78,8.53l-4.76-1.7-4.75,1.73A30.26,30.26,0,0,0,798.2,137.55Z"/><line class="cls-4" x1="776.46" y1="137.56" x2="772.79" y2="150.12"/><line class="cls-5" x1="776.46" y1="137.56" x2="774.48" y2="144.33"/><path class="cls-6" d="M772.78,150.12a29.83,29.83,0,0,0-2.17-9.54l4.09,3,5-.32A30.24,30.24,0,0,0,772.78,150.12Z"/><rect class="cls-1" x="632.04" y="154.16" width="35.78" height="26.38"/><text class="cls-3" transform="translate(640.63 171.44)">2a</text><rect class="cls-1" x="634.58" y="250.27" width="35.78" height="26.38"/><text class="cls-3" transform="translate(644.17 268.23)">4a</text><line class="cls-4" x1="661.74" y1="136.14" x2="652.79" y2="150.97"/><line class="cls-5" x1="661.74" y1="136.14" x2="655.91" y2="145.8"/><path class="cls-6" d="M652.79,151a30.24,30.24,0,0,0,.34-9.77l3.19,3.93,5,1A30.4,30.4,0,0,0,652.79,151Z"/><line class="cls-4" x1="753.33" y1="120.3" x2="766.97" y2="119.83"/><line class="cls-5" x1="753.33" y1="120.3" x2="760.94" y2="120.04"/><path class="cls-6" d="M767,119.83a30.05,30.05,0,0,0-8.38,5l1.55-4.81-1.88-4.61A30.71,30.71,0,0,0,767,119.83Z"/><line class="cls-4" x1="774.61" y1="182.42" x2="778.33" y2="199.34"/><line class="cls-5" x1="774.61" y1="182.42" x2="777.03" y2="193.44"/><path class="cls-6" d="M778.32,199.33a30.43,30.43,0,0,0-6.48-7.33l5,.66,4.27-2.7A30.44,30.44,0,0,0,778.32,199.33Z"/><text class="cls-3" transform="translate(778.76 219.15)">3b</text><rect class="cls-1" x="707.68" y="250.45" width="35.78" height="26.38"/><text class="cls-3" transform="translate(717.27 268.4)">4b</text><line class="cls-4" x1="670.41" y1="184.21" x2="680.3" y2="198.34"/><line class="cls-5" x1="670.41" y1="184.21" x2="676.84" y2="193.4"/><path class="cls-6" d="M680.3,198.34a30.06,30.06,0,0,0-8.8-4.28l4.88-1.32,2.91-4.13A29.86,29.86,0,0,0,680.3,198.34Z"/><line class="cls-4" x1="715.64" y1="183.42" x2="728.23" y2="244.22"/><line class="cls-5" x1="715.64" y1="183.42" x2="727" y2="238.31"/><path class="cls-6" d="M728.22,244.21a30,30,0,0,0-6.39-7.4l5,.72,4.31-2.65A30,30,0,0,0,728.22,244.21Z"/><line class="cls-4" x1="674.56" y1="230.41" x2="666.62" y2="245.73"/><line class="cls-5" x1="674.56" y1="230.41" x2="669.4" y2="240.37"/><path class="cls-6" d="M666.58,245.73a30.58,30.58,0,0,0-.29-9.78l3.43,3.71,5,.66A30.25,30.25,0,0,0,666.58,245.73Z"/><line class="cls-4" x1="704.64" y1="230.01" x2="714.54" y2="244.14"/><line class="cls-5" x1="704.64" y1="230.01" x2="711.08" y2="239.19"/><path class="cls-6" d="M714.58,244.13a30.41,30.41,0,0,0-8.8-4.27l4.88-1.32,2.92-4.13A30.06,30.06,0,0,0,714.58,244.13Z"/><line class="cls-4" x1="711.92" y1="214.72" x2="766.87" y2="215.15"/><line class="cls-5" x1="711.92" y1="214.72" x2="760.83" y2="215.11"/><path class="cls-6" d="M766.86,215.15a30.25,30.25,0,0,0-8.58,4.69l1.76-4.75-1.69-4.76A30.37,30.37,0,0,0,766.86,215.15Z"/></svg>